<svg xmlns="http://www.w3.org/2000/svg" xmlns:xlink="http://www.w3.org/1999/xlink" version="1.1" x="0px" y="0px" viewBox="0 0 100 125" enable-background="new 0 0 100 100" xml:space="preserve"><g><path d="M50.223,87.463l-1.473-1.915c-0.349-0.452-8.527-11.18-8.527-20.126c0-6.929,3.78-11.065,10.111-11.065   c6.385,0,10.51,4.463,10.51,11.369c0,9.684-8.646,19.518-9.015,19.932L50.223,87.463z M50.334,58.356   c-4.111,0-6.111,2.312-6.111,7.065c0,5.475,3.975,12.215,6.213,15.575c2.335-3.13,6.408-9.427,6.408-15.271   C56.844,61.042,54.472,58.356,50.334,58.356z"/></g><g><circle cx="50.334" cy="66.667" r="3.865"/></g><g><path d="M50.441,89.215c-15.814,0-28.68-12.868-28.68-28.685c0-15.813,12.865-28.679,28.68-28.679   c15.816,0,28.684,12.865,28.684,28.679C79.125,76.347,66.258,89.215,50.441,89.215z M50.441,35.852   c-13.609,0-24.68,11.07-24.68,24.679c0,13.611,11.07,24.685,24.68,24.685c13.61,0,24.684-11.073,24.684-24.685   C75.125,46.922,64.052,35.852,50.441,35.852z"/></g><g><path d="M50.441,46.678c-1.105,0-2-0.896-2-2V33.852c0-1.104,0.895-2,2-2c1.104,0,2,0.896,2,2v10.826   C52.441,45.782,51.546,46.678,50.441,46.678z"/></g><g><path d="M36.428,62.688H23.924c-1.105,0-2-0.896-2-2s0.895-2,2-2h12.504c1.104,0,2,0.896,2,2S37.531,62.688,36.428,62.688z"/></g><g><path d="M77.139,62.688h-12.5c-1.104,0-2-0.896-2-2s0.896-2,2-2h12.5c1.104,0,2,0.896,2,2S78.243,62.688,77.139,62.688z"/></g><g><path d="M55.182,27.621c-0.619,0-1.218-0.288-1.603-0.804l-4.935-6.612v5.416c0,1.104-0.896,2-2,2c-1.105,0-2-0.896-2-2V14.182   c0-0.861,0.551-1.627,1.369-1.898c0.82-0.271,1.719,0.012,2.233,0.702l4.935,6.612v-5.416c0-1.104,0.896-2,2-2s2,0.896,2,2v11.439   c0,0.861-0.552,1.627-1.37,1.898C55.604,27.588,55.393,27.621,55.182,27.621z"/></g><text x="0" y="115" fill="#000000" font-size="5px" font-weight="bold" font-family="'Helvetica Neue', Helvetica, Arial-Unicode, Arial, Sans-serif">Created by Buena Buena</text><text x="0" y="120" fill="#000000" font-size="5px" font-weight="bold" font-family="'Helvetica Neue', Helvetica, Arial-Unicode, Arial, Sans-serif">from the Noun Project</text></svg>